<svg id="anim-shop" version="1.0" xmlns="http://www.w3.org/2000/svg"
 width="561.000000pt" height="490.000000pt" viewBox="0 0 561.000000 490.000000"
 preserveAspectRatio="xMidYMid meet">

<g transform="translate(0.000000,490.000000) scale(0.100000,-0.100000)"
fill="#000000" stroke="none">
<path d="M394 4893 c-12 -2 -29 -12 -37 -21 -8 -9 -88 -282 -177 -607 -140
-507 -163 -603 -167 -679 -12 -238 61 -444 215 -608 66 -70 193 -163 239 -174
l23 -6 2 -1375 3 -1375 24 -19 c23 -19 73 -19 2291 -19 2218 0 2268 0 2291 19
l24 19 3 1375 2 1375 23 6 c44 11 172 103 233 167 156 164 231 372 221 607 -4
88 -20 155 -167 687 -111 407 -168 596 -181 610 -19 20 -33 20 -2432 21 -1326
1 -2422 -1 -2433 -3z m4890 -656 c75 -277 136 -506 136 -510 0 -4 -1174 -7
-2610 -7 -1435 0 -2610 4 -2610 8 0 4 61 233 136 509 l137 503 2337 0 2337 0
137 -503z m-3917 -769 c-4 -46 -13 -105 -21 -131 -63 -201 -236 -371 -432
-422 -75 -19 -213 -19 -288 0 -255 66 -455 323 -456 583 l0 52 601 0 602 0 -6
-82z m1360 0 c-4 -46 -13 -105 -21 -131 -63 -201 -236 -371 -432 -422 -75 -19
-213 -19 -288 0 -255 66 -455 323 -456 583 l0 52 601 0 602 0 -6 -82z m1360 0
c-4 -46 -13 -105 -21 -131 -63 -201 -236 -371 -432 -422 -75 -19 -213 -19
-288 0 -255 66 -455 323 -456 583 l0 52 601 0 602 0 -6 -82z m1360 0 c-12
-154 -71 -282 -182 -394 -117 -117 -252 -174 -415 -174 -47 0 -112 7 -144 15
-255 66 -455 323 -456 583 l0 52 601 0 602 0 -6 -82z m-3958 -364 c71 -119
213 -245 338 -300 232 -103 511 -78 720 64 73 50 180 162 224 236 19 31 36 56
39 56 3 0 20 -25 39 -56 44 -74 151 -186 224 -236 250 -170 584 -170 834 0 73
50 180 162 224 236 19 31 36 56 39 56 3 0 20 -25 39 -56 44 -74 151 -186 224
-236 130 -88 282 -132 439 -126 l98 3 0 -1287 0 -1288 -1225 0 -1225 0 -2
1045 -3 1044 -23 23 -23 23 -525 0 -526 0 -24 -28 -24 -28 0 -1040 0 -1039
-360 0 -360 0 0 1288 0 1287 98 -3 c157 -6 309 38 439 126 73 50 180 162 224
236 19 31 36 56 39 56 3 0 20 -25 39 -56z m871 -1944 l0 -990 -415 0 -415 0 0
990 0 990 415 0 415 0 0 -990z"/>
</g>
</svg>
