<svg id="anim-move" version="1.0" xmlns="http://www.w3.org/2000/svg"
 width="438.000000pt" height="561.000000pt" viewBox="0 0 438.000000 561.000000"
 preserveAspectRatio="xMidYMid meet">

<g transform="translate(0.000000,561.000000) scale(0.100000,-0.100000)"
fill="#000000" stroke="none">
<path d="M2740 5594 c-19 -3 -79 -14 -134 -25 -604 -125 -1045 -619 -1108
-1241 l-12 -117 -85 -26 c-348 -107 -400 -126 -450 -163 -101 -77 -94 -60
-527 -1145 -253 -635 -409 -1038 -414 -1074 -24 -148 49 -315 173 -395 28 -19
277 -126 552 -239 l500 -204 105 0 c93 0 112 3 162 27 76 35 121 70 162 127
23 32 136 301 361 866 181 451 331 823 334 827 3 4 45 -7 93 -25 80 -29 88
-35 93 -62 2 -16 16 -162 30 -324 14 -162 29 -301 33 -308 9 -15 122 -117 178
-159 l37 -28 -94 -87 -93 -86 21 -248 c25 -281 23 -276 119 -316 30 -13 54
-25 54 -28 0 -4 -25 -35 -56 -70 -31 -35 -59 -74 -63 -85 -12 -32 37 -536 54
-562 15 -24 465 -392 502 -413 45 -24 69 -4 289 237 194 214 214 239 214 272
0 19 -45 535 -100 1145 -55 611 -100 1120 -100 1132 0 17 13 29 52 49 242 123
475 361 605 617 49 98 108 284 128 402 23 132 23 348 0 480 -35 208 -120 420
-240 600 -78 118 -280 321 -397 398 -165 110 -347 187 -536 227 -94 21 -356
34 -442 24z m366 -169 c270 -47 512 -173 710 -370 116 -115 186 -211 254 -345
62 -123 95 -217 120 -338 103 -506 -89 -1006 -500 -1300 -35 -26 -109 -70
-165 -97 -67 -35 -104 -59 -111 -76 -9 -19 11 -268 92 -1164 57 -627 103
-1152 104 -1167 0 -20 -36 -66 -161 -202 l-161 -176 -111 92 c-62 50 -149 121
-194 157 -70 55 -83 71 -84 96 0 17 -8 113 -18 215 l-18 185 72 80 c90 101
105 123 105 155 0 35 -29 60 -126 108 -94 47 -84 23 -105 258 l-11 132 48 43
c115 104 174 163 180 181 12 40 -6 65 -109 141 -56 42 -117 91 -134 109 l-31
33 -28 320 c-15 176 -33 334 -40 351 -10 27 -21 34 -84 53 -40 12 -97 33 -126
46 l-54 24 21 53 c85 211 98 298 60 415 -10 32 -95 198 -188 368 -190 346
-230 400 -336 445 -31 14 -57 28 -57 32 0 21 199 174 307 237 75 43 233 114
240 108 2 -2 10 -29 18 -61 34 -131 114 -230 232 -288 64 -31 73 -33 178 -33
104 0 114 2 177 33 85 42 168 129 198 209 112 291 -110 599 -419 581 -137 -8
-253 -79 -323 -199 -36 -62 -40 -65 -105 -88 -242 -84 -475 -236 -641 -418
-42 -45 -89 -87 -105 -93 l-30 -10 7 72 c10 92 46 234 85 333 157 392 523 690
932 759 115 19 326 20 435 1z m-131 -529 c49 -21 120 -90 144 -141 25 -54 28
-155 6 -208 -33 -78 -112 -140 -197 -152 -138 -20 -288 103 -292 239 l-1 50
77 16 c89 18 118 39 118 87 0 49 -37 80 -87 74 -26 -4 -12 11 30 29 51 24 152
26 202 6z m-1069 -785 c23 -10 56 -34 74 -53 27 -29 241 -405 347 -613 68
-132 92 -52 -351 -1165 -214 -536 -398 -993 -408 -1015 -48 -97 -128 -149
-228 -148 -61 1 -95 13 -540 196 -262 107 -489 201 -505 210 -38 19 -87 72
-111 117 -13 24 -18 56 -18 105 0 69 8 90 399 1065 219 547 409 1009 422 1027
47 64 84 81 339 162 137 43 250 77 252 76 1 -1 -9 -28 -23 -59 -32 -72 -65
-191 -65 -232 0 -26 -5 -33 -26 -38 -46 -12 -138 -114 -160 -176 -54 -159 14
-328 162 -401 69 -34 197 -34 267 0 190 94 239 343 98 503 -31 36 -139 98
-169 98 -36 0 10 145 91 287 40 69 44 73 77 73 19 0 54 -9 76 -19z m-236 -513
c147 -75 94 -298 -70 -298 -120 0 -197 132 -138 235 25 43 93 85 138 85 14 0
46 -10 70 -22z"/>
</g>
</svg>
