<svg id="anim-furniture" version="1.0" xmlns="http://www.w3.org/2000/svg"
 width="192.000000pt" height="192.000000pt" viewBox="0 0 192.000000 192.000000"
 preserveAspectRatio="xMidYMid meet">

<g transform="translate(0.000000,192.000000) scale(0.100000,-0.100000)"
fill="#000000" stroke="none">
<path d="M600 1728 c-74 -29 -150 -105 -178 -181 -19 -49 -22 -79 -22 -204 l0
-145 -22 6 c-63 19 -107 18 -152 -4 -116 -56 -138 -233 -40 -319 l34 -30 0
-196 c0 -260 2 -265 130 -265 l69 0 3 -107 3 -108 59 -3 c32 -2 63 1 68 6 5 5
16 38 24 73 8 35 19 81 25 102 l10 37 349 0 349 0 10 -37 c6 -21 17 -67 25
-102 8 -35 19 -68 24 -73 5 -5 36 -8 68 -6 l59 3 3 108 3 107 69 0 c128 0 130
5 130 263 l0 195 39 39 c67 67 77 162 26 250 -43 72 -124 97 -222 67 l-23 -6
0 145 c0 125 -3 155 -22 204 -29 77 -104 152 -181 181 -55 21 -74 22 -360 21
-282 0 -306 -1 -357 -21z m700 -54 c67 -31 106 -68 137 -132 26 -54 28 -65 31
-224 4 -138 1 -175 -12 -208 -12 -30 -16 -74 -16 -175 l0 -135 -480 0 -480 0
0 135 c0 98 -4 146 -15 172 -18 42 -21 279 -5 364 20 105 95 187 197 215 36
10 119 13 323 11 255 -2 278 -3 320 -23z m-936 -529 c50 -38 56 -61 56 -217 0
-80 3 -153 6 -162 5 -14 62 -16 534 -16 l528 0 6 23 c3 12 6 85 6 162 0 118 3
144 18 168 28 42 53 56 100 57 34 0 49 -6 78 -33 31 -28 37 -42 41 -83 6 -59
-13 -105 -55 -131 -15 -10 -30 -22 -34 -28 -4 -5 -8 -103 -8 -216 0 -159 -3
-209 -13 -217 -19 -16 -1315 -16 -1334 0 -10 8 -13 58 -13 217 0 113 -4 211
-8 216 -4 6 -19 18 -34 28 -42 26 -61 72 -55 131 4 41 10 55 41 83 29 27 44
33 78 33 24 0 52 -7 62 -15z m186 -762 c0 -5 -4 -24 -9 -43 -6 -19 -15 -54
-21 -77 -6 -26 -17 -43 -25 -43 -12 0 -15 17 -15 85 l0 85 35 0 c19 0 35 -3
35 -7z m890 -78 c0 -68 -3 -85 -15 -85 -8 0 -19 17 -25 43 -6 23 -15 58 -21
77 -13 50 -13 50 26 50 l35 0 0 -85z"/>
</g>
</svg>
