<svg id="anim-location" version="1.0" xmlns="http://www.w3.org/2000/svg"
 width="240.000000pt" height="240.000000pt" viewBox="0 0 240.000000 240.000000"
 preserveAspectRatio="xMidYMid meet">

<g transform="translate(0.000000,240.000000) scale(0.100000,-0.100000)"
fill="#000000" stroke="none">
<path d="M1050 2185 c-327 -66 -572 -315 -636 -643 -49 -254 42 -571 243 -853
163 -227 482 -504 558 -485 77 19 333 240 459 395 250 308 367 659 312 943
-64 332 -312 580 -644 644 -89 17 -204 17 -292 -1z m276 -96 c276 -50 513
-287 563 -563 42 -232 -42 -521 -227 -780 -116 -161 -406 -436 -462 -436 -56
0 -346 275 -462 436 -223 312 -293 644 -191 904 123 313 453 499 779 439z"/>
<path d="M1103 1736 c-103 -34 -176 -98 -222 -196 -22 -46 -26 -69 -26 -140 0
-76 4 -93 33 -152 38 -77 92 -130 171 -167 47 -22 70 -26 141 -26 71 0 94 4
141 26 79 37 133 90 171 167 29 59 33 76 33 152 0 71 -4 94 -26 141 -58 124
-169 199 -302 205 -43 3 -89 -2 -114 -10z m225 -123 c157 -97 161 -325 6 -423
-119 -75 -273 -38 -349 84 -26 44 -30 58 -30 125 0 65 4 83 28 123 52 89 132
131 235 124 47 -3 75 -11 110 -33z"/>
</g>
</svg>
